<svg width="28" height="26" viewBox="0 0 28 26" fill="none" xmlns="http://www.w3.org/2000/svg">
<path d="M14.0001 25.7609L2.6868 14.4476C1.18638 12.9473 0.343387 10.9125 0.343262 8.79072C0.343137 6.66893 1.18589 4.634 2.68613 3.13358C4.18638 1.63316 6.22121 0.790164 8.343 0.790039C10.4648 0.789914 12.4997 1.63267 14.0001 3.13291C15.5013 1.63437 17.5357 0.792711 19.6568 0.792711C21.7779 0.792711 23.8123 1.63437 25.3135 3.13291C26.8114 4.6344 27.6526 6.66869 27.6526 8.78958C27.6526 10.9105 26.8114 12.9448 25.3135 14.4462L14.0001 25.7609ZM8.3428 3.45691C7.28786 3.45687 6.2566 3.76969 5.37946 4.35581C4.50232 4.94192 3.81871 5.775 3.41508 6.74968C3.01145 7.72435 2.90594 8.79683 3.1119 9.83147C3.31786 10.8661 3.82603 11.8164 4.57213 12.5622L14.0001 21.9902L23.4281 12.5622C23.9697 12.0328 24.3922 11.3941 24.6677 10.6886C24.9431 9.98314 25.0652 9.22709 25.0257 8.47078C24.9862 7.71447 24.7861 6.97524 24.4387 6.30228C24.0913 5.62932 23.6046 5.03807 23.0109 4.56786C22.4172 4.09766 21.7301 3.75929 20.9955 3.57527C20.2609 3.39126 19.4954 3.36581 18.7502 3.50063C18.005 3.63544 17.297 3.92743 16.6734 4.35716C16.0497 4.7869 15.5248 5.34451 15.1335 5.99291L14.0001 7.82224L12.8668 5.99291C12.399 5.21296 11.7353 4.56885 10.9418 4.12447C10.1482 3.6801 9.25227 3.45089 8.3428 3.45958V3.45691Z" fill="black"/>
</svg>
