<svg width="22" height="22" viewBox="0 0 22 22" fill="none" xmlns="http://www.w3.org/2000/svg">
<path d="M21.191 14.489L21.153 13.662L14.67 12.736L13.355 15.31C11.9666 14.5283 10.6974 13.5517 9.58603 12.41C8.43162 11.3004 7.44795 10.0259 6.66703 8.628L9.46703 7.228L6.66703 0.708L5.90703 0.818C4.61989 0.995306 3.42741 1.59295 2.51503 2.518C-0.657969 5.687 0.585031 11.9 5.34303 16.657C8.32503 19.638 11.876 21.239 14.894 21.238C15.7376 21.2674 16.5785 21.1274 17.367 20.8263C18.1556 20.5252 18.8757 20.0691 19.485 19.485C20.1074 18.8208 20.5814 18.0319 20.8755 17.1705C21.1696 16.3092 21.2772 15.3951 21.191 14.489ZM18.071 18.071C15.771 20.371 10.59 19.071 6.75703 15.243C2.92403 11.415 1.62903 6.229 3.92903 3.929C4.35777 3.4945 4.88251 3.16671 5.46103 2.972L6.88103 6.285L5.77403 6.838C5.53423 6.9581 5.3209 7.12497 5.14658 7.32879C4.97227 7.53261 4.84051 7.76925 4.75907 8.02478C4.67762 8.2803 4.64813 8.54954 4.67234 8.81664C4.69655 9.08373 4.77397 9.34328 4.90003 9.58C5.77538 11.1482 6.8761 12.5794 8.16703 13.828C9.41595 15.1045 10.8415 16.1952 12.4 17.067C12.6403 17.1974 12.9042 17.2785 13.1762 17.3054C13.4482 17.3324 13.7229 17.3047 13.984 17.224C14.2394 17.1445 14.4761 17.014 14.6796 16.8404C14.8831 16.6668 15.0493 16.4537 15.168 16.214L15.815 14.92L19.182 15.401C19.1436 16.3954 18.7494 17.3429 18.071 18.071Z" fill="black"/>
</svg>
