<svg width="26" height="26" viewBox="0 0 26 26" fill="none" xmlns="http://www.w3.org/2000/svg">
<path d="M13.0002 14.0003C14.3187 14.0003 15.6076 13.6093 16.704 12.8768C17.8003 12.1442 18.6548 11.1031 19.1594 9.88488C19.6639 8.66671 19.796 7.32627 19.5387 6.03306C19.2815 4.73985 18.6466 3.55197 17.7142 2.61962C16.7819 1.68727 15.594 1.05233 14.3008 0.795093C13.0076 0.537859 11.6671 0.669881 10.4489 1.17447C9.23077 1.67905 8.18957 2.53353 7.45703 3.62986C6.72449 4.72619 6.3335 6.01512 6.3335 7.33366C6.33561 9.10112 7.03867 10.7956 8.28846 12.0454C9.53824 13.2952 11.2327 13.9982 13.0002 14.0003ZM13.0002 3.33366C13.7913 3.33366 14.5646 3.56826 15.2224 4.00778C15.8802 4.44731 16.3929 5.07202 16.6957 5.80293C16.9984 6.53383 17.0776 7.3381 16.9233 8.11402C16.769 8.88995 16.388 9.60268 15.8286 10.1621C15.2692 10.7215 14.5564 11.1025 13.7805 11.2568C13.0046 11.4111 12.2003 11.3319 11.4694 11.0292C10.7385 10.7264 10.1138 10.2137 9.67428 9.55594C9.23476 8.89815 9.00016 8.12479 9.00016 7.33366C9.00016 6.2728 9.42159 5.25538 10.1717 4.50523C10.9219 3.75509 11.9393 3.33366 13.0002 3.33366Z" fill="black"/>
<path d="M24.9815 24.4465C24.4008 21.7474 22.8738 19.3451 20.6764 17.6737C18.479 16.0023 15.7562 15.1721 13.0001 15.3332C10.244 15.1721 7.5212 16.0023 5.32381 17.6737C3.12642 19.3451 1.59942 21.7474 1.01879 24.4465L0.758789 25.9998H25.2415L24.9815 24.4465ZM4.13079 23.3332C4.99079 21.2998 7.26679 17.9998 13.0001 17.9998C18.6815 17.9998 20.9775 21.2972 21.8548 23.3332H4.13079Z" fill="black"/>
</svg>
